<svg id="Слой_1" data-name="Слой 1" xmlns="http://www.w3.org/2000/svg" viewBox="0 0 293.56 400.32"><defs><style>.cls-1{fill:#3da52b;}</style></defs><title>garantia</title><path class="cls-1" d="M410,521.38c2.73,10.21-4.34,26.08,2.93,38.56s24.89,14.68,31.89,21.75a112.92,112.92,0,0,1,11.28,20L420.71,704.92a13.34,13.34,0,0,0,20,15.14l22.14-15.68,7.81,26a13.34,13.34,0,0,0,25.42.53l34.56-99.47a23.94,23.94,0,0,0,18.68,0l34.29,99.74a13.34,13.34,0,0,0,25.42-.54l7.81-26L639,720.13A13.34,13.34,0,0,0,659,705L623.93,602a119,119,0,0,1,11.21-20c7.27-7.47,25-9.48,32-22s.33-28.69,2.93-38.57,16.75-20.21,16.75-34.82S672.5,461.13,670,451.79s4.34-26.09-2.93-38.56-24.89-14.68-31.89-21.75-9.21-25-21.82-32-28.69,0-38.57-2.87S554.68,339.84,540,339.84s-25.42,14.21-34.82,16.74c-10.41,2.74-26-4.4-38.57,2.87s-14.61,24.82-21.75,32-24.95,9.21-31.63,21.82,0,28.69-2.93,38.56-17.08,20.08-17.08,34.83S407.43,511.9,410,521.38ZM483.76,726.8,476,700.71A13.35,13.35,0,0,0,455.4,694l-22.15,15.48c35.76-104.15,32.69-96.14,33.36-96.14,12.28,7.14,28.69,0,38.57,2.87a55.6,55.6,0,0,1,13.34,8.14ZM624.6,693.44a13.35,13.35,0,0,0-20.55,7.34l-7.81,26L561.15,624.66a50.51,50.51,0,0,1,13.35-8.07c10.47-2.81,26,4.33,38.55-2.94.67-.4-2.33-8.14,33.36,95.8ZM414,471.27c9.54-13.34,10.87-17.74,9.34-35s-.6-18.48,14.94-25.63,18.62-10.27,25.69-25.75,9.27-16.41,25.68-14.87,21.55,0,35-9.34,16.48-9.94,30.56,0,18.08,10.8,35,9.34,18.54-.6,25.68,14.87,10.34,18.62,25.69,25.75,16.48,8.95,14.94,25.63,0,21.61,9.34,35,9.94,16.48,0,30.56-10.87,17.74-9.34,35,.6,18.48-14.94,25.68S623.13,572.75,616,588.23s-8.94,16.41-25.68,14.94-21.55,0-35,9.28-16.48,9.94-30.56,0a38.25,38.25,0,0,0-25.35-9.88c-9.61,0-20.48,2.74-26.09-.46-7.67-4.47-9.74-20.62-19-29.83s-25.49-11.47-29.82-18.94,1.8-22.69-1.61-35.3-16.28-22.55-16.28-31.42A31.08,31.08,0,0,1,414,471.27Zm0,0" transform="translate(-393.22 -339.84)"/><path class="cls-1" d="M540,586.7A100.08,100.08,0,1,0,439.92,486.62,100.08,100.08,0,0,0,540,586.7Zm0-186.81a86.72,86.72,0,1,1-61.33,25.4A86.73,86.73,0,0,1,540,399.89Zm0,0" transform="translate(-393.22 -339.84)"/><path class="cls-1" d="M493.63,508.17a6.68,6.68,0,0,0,6.34-6.68A42.38,42.38,0,0,1,512.78,470c10.07-10,22-12.67,36.56-15.14a77.25,77.25,0,0,0,28.36-10.94c8.67,33.36-7.14,74.72-40,85.66a78.57,78.57,0,0,1-23.89,3.94,134,134,0,0,1,40-45.57,6.67,6.67,0,0,0-7.8-10.81,138.63,138.63,0,0,0-48.77,60.05,6.66,6.66,0,0,0,5.6,8.87c34.89,3.74,66.25-10.4,81.79-44a92.78,92.78,0,0,0,2.81-71.32,6.68,6.68,0,0,0-10.08-2.94A69.89,69.89,0,0,1,547,441.45c-16.34,2.74-30.88,6.07-43.76,18.81a55.76,55.76,0,0,0-16.61,41.5,6.66,6.66,0,0,0,7,6.41Zm0,0" transform="translate(-393.22 -339.84)"/></svg>