<svg id="Слой_1" data-name="Слой 1" xmlns="http://www.w3.org/2000/svg" viewBox="0 0 809.96 220.97"><defs><style>.cls-1{fill:#2a2;}.cls-2{fill:none;}.cls-3{fill:#1c8a1c;}</style></defs><title>Безымянный-2</title><rect class="cls-1" width="809.96" height="220.97"/><path class="cls-2" d="M583.44,105.34l-.65-.71a5.42,5.42,0,0,1-.42-6.79l.51-.72.65.59.24.23V67.78c-15.17,9.29-21.12,15.9-17.58,54,0,0,5.83-9.85,11.76-13.16,1.88-1,3.83-2.18,5.82-3.46v-.3Zm-11.53-6.47a1.5,1.5,0,0,1-.72,1,1.57,1.57,0,1,1,.5-2.14A1.64,1.64,0,0,1,571.91,98.87Zm4.5-12.38a2.33,2.33,0,0,1-2.95,1.79,2.43,2.43,0,0,1-1.31-1.06,2.3,2.3,0,1,1,3.93-2.38A2.38,2.38,0,0,1,576.41,86.49Z" transform="translate(226.19 60.44)"/><path class="cls-2" d="M583.5,62.85a1.48,1.48,0,0,1-1.26.16,1.64,1.64,0,0,1-.86-.7,1.51,1.51,0,0,1,.51-2.13,1.5,1.5,0,0,1,1.88.23V48.61a7.24,7.24,0,0,1-1.09-.31l-.89-.34.52-.81a5.48,5.48,0,0,1,1.46-1.49v-.45c-8.67,10.28-8.32,19.11-7.7,22.65,2.45-1.27,5-2.32,7.7-3.45V62.65A1.35,1.35,0,0,1,583.5,62.85Z" transform="translate(226.19 60.44)"/><path class="cls-2" d="M570.82,132.52c.81,1.48,5.34,8.48,12.95,18.86V108.73C569.77,119.58,566.83,125.19,570.82,132.52Zm9.39-7.62a1.52,1.52,0,0,1-2.12-.54,1.63,1.63,0,0,1-.22-1.09,1.54,1.54,0,0,1,2.85-.5A1.51,1.51,0,0,1,580.21,124.9Z" transform="translate(226.19 60.44)"/><path class="cls-2" d="M567,51.8a54.14,54.14,0,0,1-7.46,19.13c-17.21,27.56,1.34,46.64,1.34,46.64S556.1,89.69,567.25,75a23.11,23.11,0,0,1,4.84-4.71,37.38,37.38,0,0,1,1.65-11.36l-.2,0C573.47,58.89,567.48,57.78,567,51.8Z" transform="translate(226.19 60.44)"/><path class="cls-3" d="M582.31,47.15l-.52.81.89.34a7.24,7.24,0,0,0,1.09.31v-3A5.48,5.48,0,0,0,582.31,47.15Z" transform="translate(226.19 60.44)"/><path class="cls-3" d="M486,156.57l.31.91.82-.5a5.07,5.07,0,0,0,2.68-4.89,4.85,4.85,0,0,0-.4-1.58l-.08-.19-1.93.52A5.5,5.5,0,0,0,486,156.57Z" transform="translate(226.19 60.44)"/><path class="cls-3" d="M514.79,148.55,514,149c-5.54,3.1-3.72,9.22-3.7,9.28l.28.91.84-.46a7.92,7.92,0,0,0,3.46-3.48,7.82,7.82,0,0,0,.22-5.87Z" transform="translate(226.19 60.44)"/><path class="cls-3" d="M548.37,31.5a7.45,7.45,0,0,0,3.85-9.28l-.32-.82-.77.42a7.44,7.44,0,0,0-4.08,6,15.79,15.79,0,0,1,1.11,3.76Z" transform="translate(226.19 60.44)"/><path class="cls-3" d="M505.84,133.13a7.51,7.51,0,0,0-2.45-9.74l-.75-.46-.37.79c-2.41,5.14,1.36,8.81,2.22,9.56l1.19.2Z" transform="translate(226.19 60.44)"/><path class="cls-3" d="M548.51,2.73l.8-.53a7.49,7.49,0,0,0,3-9.59l-.4-.78-.73.48c-5.31,3.49-3.06,9.46-3,9.52Z" transform="translate(226.19 60.44)"/><path class="cls-3" d="M530.69,28.17l.9.34.15-1a7.47,7.47,0,0,0-5.09-8.67l-.84-.23-.13.86C524.7,25.8,530.63,28.14,530.69,28.17Z" transform="translate(226.19 60.44)"/><path class="cls-3" d="M493.23,47l.81.5.33-.9A7.48,7.48,0,0,0,491,37.08l-.79-.38-.29.82C487.78,43.51,493.17,46.92,493.23,47Z" transform="translate(226.19 60.44)"/><path class="cls-3" d="M495.86,87.41l-.06.88.88-.05a7.4,7.4,0,0,0,5.86-3.12A9.63,9.63,0,0,0,504,81.9l-1.47-1.18A7.43,7.43,0,0,0,495.86,87.41Z" transform="translate(226.19 60.44)"/><path class="cls-3" d="M449.32,120.69l.19.85.83-.28c6-2.05,5.33-8.39,5.32-8.46l0-.4c-.65.06-1.28.1-1.91.12A7.46,7.46,0,0,0,449.32,120.69Z" transform="translate(226.19 60.44)"/><path class="cls-3" d="M497.91,18.14l1,.05-.16-1a7.48,7.48,0,0,0-7.57-6.62l-.87.05.15.86C491.47,17.8,497.84,18.14,497.91,18.14Z" transform="translate(226.19 60.44)"/><path class="cls-3" d="M463.22,30.09l.94.2v-1a7.47,7.47,0,0,0-6.35-7.79l-.87-.1v.87C456.93,28.67,463.15,30.07,463.22,30.09Z" transform="translate(226.19 60.44)"/><path class="cls-3" d="M465.19,70.42l-.89-.34a7.47,7.47,0,0,0-9.55,3.11l-.41.78.82.31c5.92,2.3,9.48-3,9.51-3l.16-.23c-4.5,1-8,2.1-8.82,2.37C459.05,72.34,462.11,71.31,465.19,70.42Z" transform="translate(226.19 60.44)"/><path class="cls-3" d="M573.54,58.9l.2,0c.18-.61.39-1.24.61-1.87a7.45,7.45,0,0,0-6.57-6.48l-.6,0c-.06.42-.13.84-.21,1.27C567.48,57.78,573.47,58.89,573.54,58.9Z" transform="translate(226.19 60.44)"/><path class="cls-3" d="M572.41,26.31l.9-.33a6.86,6.86,0,0,0,1.12-.54,5,5,0,0,0,2.31-5.4l-.21-.85-.82.31a5.38,5.38,0,0,0-3.44,5.86Z" transform="translate(226.19 60.44)"/><path class="cls-3" d="M583.53,97.71l-.65-.59-.51.72a5.42,5.42,0,0,0,.42,6.79l.65.71.33-.46V97.94Z" transform="translate(226.19 60.44)"/><path class="cls-3" d="M518.72,69.27l-.86.42.59.76a5,5,0,0,0,6.66,1.47c-.78-1-1.53-1.94-2.25-3A5.79,5.79,0,0,0,518.72,69.27Z" transform="translate(226.19 60.44)"/><path class="cls-3" d="M480.34,128.36a5.43,5.43,0,0,0-2.71-6.24l-.86-.44-.25.92a5,5,0,0,0,2.38,6.08,2.87,2.87,0,0,0,.4.19l.34.14.51.05Z" transform="translate(226.19 60.44)"/><path class="cls-3" d="M462,100.65l-.94.19.37.88a5,5,0,0,0,6.09,3.17l.84-.25-.35-.8A5.42,5.42,0,0,0,462,100.65Z" transform="translate(226.19 60.44)"/><path class="cls-3" d="M528.81.64l-.67.56a5.41,5.41,0,0,0-1.27,6.69l.45.84.74-.62a5,5,0,0,0,1.23-6.75Z" transform="translate(226.19 60.44)"/><path class="cls-3" d="M462.58,42.53l.22-.15.79-.55-.7-.65a5,5,0,0,0-6.84-.46l-.67.56.63.6A5.41,5.41,0,0,0,462.58,42.53Z" transform="translate(226.19 60.44)"/><path class="cls-3" d="M456.54,81.75l-.65.59.67.57a1.56,1.56,0,0,0,.2.16,5.41,5.41,0,0,0,6.6,0l.76-.58-.73-.63A5,5,0,0,0,456.54,81.75Z" transform="translate(226.19 60.44)"/><path class="cls-3" d="M471.28,145.38l-.57-.77a5,5,0,0,0-6.66-1.65l-.76.44.52.7a5.15,5.15,0,0,0,3.09,2,5.84,5.84,0,0,0,3.51-.36Z" transform="translate(226.19 60.44)"/><path class="cls-3" d="M492.23,138l.09.87.85-.19a5.34,5.34,0,0,0,4.2-4.67l0-.38-2.4-.52A5,5,0,0,0,492.23,138Z" transform="translate(226.19 60.44)"/><path class="cls-3" d="M477.37,17.78l.9.35.16-.95A5,5,0,0,0,475,11.24l-.84-.25-.14.87A5.41,5.41,0,0,0,477.37,17.78Z" transform="translate(226.19 60.44)"/><path class="cls-3" d="M439.46,69.29l-.78.39.48.73a5.41,5.41,0,0,0,6.47,2.09l.9-.35-.52-.8A5,5,0,0,0,439.46,69.29Z" transform="translate(226.19 60.44)"/><path class="cls-3" d="M508.49,33.86l1-.1-.3-.91a5,5,0,0,0-5.78-3.7l-.86.17.28.83A5.4,5.4,0,0,0,508.49,33.86Z" transform="translate(226.19 60.44)"/><path class="cls-3" d="M522.22,54.77l.61.74.6-.76a5,5,0,0,0-.14-6.86l-.62-.62-.54.69A5.42,5.42,0,0,0,522.22,54.77Z" transform="translate(226.19 60.44)"/><path class="cls-3" d="M488.84,59a4.36,4.36,0,0,0-.69-.67Z" transform="translate(226.19 60.44)"/><path class="cls-3" d="M485.1,57.27h-.88l.11.87a5.42,5.42,0,0,0,4.88,4.75l1,.08-.12-.95a6.2,6.2,0,0,0-.48-1.82A28.05,28.05,0,0,1,487.68,58,5,5,0,0,0,485.1,57.27Z" transform="translate(226.19 60.44)"/><path class="cls-3" d="M437.11,90.14l-.79.37.46.74a5.4,5.4,0,0,0,6.41,2.27l.91-.32-.5-.82A5.05,5.05,0,0,0,437.11,90.14Z" transform="translate(226.19 60.44)"/><path class="cls-3" d="M485.59,110.32l0,.88.86-.12a5.22,5.22,0,0,0,4.3-3.4,5.55,5.55,0,0,0,.37-1.55l0-.54-3.24.49A5,5,0,0,0,485.59,110.32Z" transform="translate(226.19 60.44)"/><path class="cls-3" d="M563,13.56l.68-.67a5,5,0,0,0,.74-6.82l-.53-.69-.63.61a5.41,5.41,0,0,0-.78,6.76Z" transform="translate(226.19 60.44)"/><path class="cls-3" d="M508.48-.62l.53-.8a5,5,0,0,0-.75-6.82l-.67-.56-.48.73a5.41,5.41,0,0,0,.7,6.77Z" transform="translate(226.19 60.44)"/><path class="cls-3" d="M464.3,134.54a2.26,2.26,0,0,0,3.2.75,2.43,2.43,0,0,0,1.06-1.31,2.23,2.23,0,0,0-.25-1.87l-.09-.16c-1.18-1.95-3.74-1-4.26.56a2.23,2.23,0,0,0,.24,1.87Z" transform="translate(226.19 60.44)"/><path class="cls-3" d="M496.59,127.14a2.34,2.34,0,1,0-3.18-.82A2.24,2.24,0,0,0,496.59,127.14Z" transform="translate(226.19 60.44)"/><path class="cls-3" d="M500.27,150.77a2.34,2.34,0,1,0,3.18.82A2.24,2.24,0,0,0,500.27,150.77Z" transform="translate(226.19 60.44)"/><path class="cls-3" d="M505.65,113a2.34,2.34,0,1,0-3.18-.82A2.24,2.24,0,0,0,505.65,113Z" transform="translate(226.19 60.44)"/><path class="cls-3" d="M485.13,95.11a2.29,2.29,0,1,0,.74-3.19A2.24,2.24,0,0,0,485.13,95.11Z" transform="translate(226.19 60.44)"/><path class="cls-3" d="M449.45,101.25a2.34,2.34,0,0,0,2.43,4,2.35,2.35,0,0,0-2.43-4Z" transform="translate(226.19 60.44)"/><path class="cls-3" d="M448.28,56.87l-.1-.16c-1.18-2-3.74-1-4.26.55a2.26,2.26,0,0,0,.24,1.87l.1.17a2.35,2.35,0,0,0,4-2.43Z" transform="translate(226.19 60.44)"/><path class="cls-3" d="M471.16,44a2.23,2.23,0,0,0,.25,1.87l.1.17a2.24,2.24,0,0,0,3.19.74,2.4,2.4,0,0,0,1.06-1.3,2.22,2.22,0,0,0-.24-1.87l-.1-.16C474.24,41.46,471.68,42.39,471.16,44Z" transform="translate(226.19 60.44)"/><path class="cls-3" d="M469.64,38.39a2.26,2.26,0,0,0,3.2.75,2.43,2.43,0,0,0,1.06-1.31,2.23,2.23,0,0,0-.24-1.87l-.1-.16c-1.18-1.95-3.74-1-4.26.56a2.23,2.23,0,0,0,.25,1.87Z" transform="translate(226.19 60.44)"/><path class="cls-3" d="M506.51,48.8A2.35,2.35,0,1,0,510,51.27a2.44,2.44,0,0,0-.34-1.65A2.25,2.25,0,0,0,506.51,48.8Z" transform="translate(226.19 60.44)"/><path class="cls-3" d="M509.23,14.35a2.44,2.44,0,0,0,.34,1.65,2.31,2.31,0,0,0,4.26-.73,2.44,2.44,0,0,0-.34-1.65,2.31,2.31,0,0,0-4.26.73Z" transform="translate(226.19 60.44)"/><path class="cls-3" d="M484.31,24.53a2.35,2.35,0,0,0-2.43-4,2.34,2.34,0,0,0,2.43,4Z" transform="translate(226.19 60.44)"/><path class="cls-3" d="M494.82,3.61a2.26,2.26,0,0,0,.75-3.2,2.47,2.47,0,0,0-1.31-1.06,2.39,2.39,0,0,0-2.95,1.79,2.49,2.49,0,0,0,.33,1.65A2.25,2.25,0,0,0,494.82,3.61Z" transform="translate(226.19 60.44)"/><path class="cls-3" d="M527.64-3a2.23,2.23,0,0,0,1.87-.25,2.2,2.2,0,0,0,1.08-1.54,2.37,2.37,0,0,0-.33-1.65,2.25,2.25,0,0,0-3.18-.82,2.25,2.25,0,0,0-.75,3.19A2.49,2.49,0,0,0,527.64-3Z" transform="translate(226.19 60.44)"/><path class="cls-3" d="M550.35,12.86a2.21,2.21,0,0,0-1.08,1.54,2.43,2.43,0,0,0,.34,1.65,2.3,2.3,0,0,0,4.25-.72,2.42,2.42,0,0,0-.33-1.65A2.25,2.25,0,0,0,550.35,12.86Z" transform="translate(226.19 60.44)"/><path class="cls-3" d="M577.62,11.33a2.26,2.26,0,0,0,.75-3.2,2.43,2.43,0,0,0-1.31-1.06,2.39,2.39,0,0,0-2.95,1.79,2.44,2.44,0,0,0,.34,1.65A2.24,2.24,0,0,0,577.62,11.33Z" transform="translate(226.19 60.44)"/><path class="cls-3" d="M574.38,37.35a2.23,2.23,0,0,0,1.09-1.55,2.44,2.44,0,0,0-.34-1.65,2.31,2.31,0,0,0-4.26.73,2.44,2.44,0,0,0,.34,1.65A2.25,2.25,0,0,0,574.38,37.35Z" transform="translate(226.19 60.44)"/><path class="cls-3" d="M554.27,58.16a2.22,2.22,0,0,0-1.08,1.54,2.37,2.37,0,0,0,.33,1.65,2.25,2.25,0,0,0,3.18.82,2.21,2.21,0,0,0,1.08-1.54,2.44,2.44,0,0,0-.34-1.65A2.24,2.24,0,0,0,554.27,58.16Z" transform="translate(226.19 60.44)"/><path class="cls-3" d="M572.9,84a2.26,2.26,0,0,0-.75,3.2,2.43,2.43,0,0,0,1.31,1.06,2.33,2.33,0,0,0,2.95-1.79,2.38,2.38,0,0,0-.33-1.65A2.26,2.26,0,0,0,572.9,84Z" transform="translate(226.19 60.44)"/><path class="cls-3" d="M526.9,103.63a2.34,2.34,0,1,0-3.18-.82A2.24,2.24,0,0,0,526.9,103.63Z" transform="translate(226.19 60.44)"/><path class="cls-3" d="M529.63,140.05a2.34,2.34,0,1,0,3.18.82A2.25,2.25,0,0,0,529.63,140.05Z" transform="translate(226.19 60.44)"/><path class="cls-3" d="M508.49,69.38a2.35,2.35,0,1,0,3.17.82A2.25,2.25,0,0,0,508.49,69.38Z" transform="translate(226.19 60.44)"/><path class="cls-3" d="M537.49,38.19a2.19,2.19,0,0,0,1.87-.24,2.22,2.22,0,0,0,1.08-1.54,2.37,2.37,0,0,0-.33-1.65,2.3,2.3,0,1,0-3.93,2.37A2.43,2.43,0,0,0,537.49,38.19Z" transform="translate(226.19 60.44)"/><path class="cls-3" d="M483.43,48.06a2.44,2.44,0,0,0-.34-1.65,2.26,2.26,0,1,0,.34,1.65Z" transform="translate(226.19 60.44)"/><path class="cls-3" d="M474.61,116.48a2.35,2.35,0,1,0-3.17-.82A2.26,2.26,0,0,0,474.61,116.48Z" transform="translate(226.19 60.44)"/><path class="cls-3" d="M531.58,69.31a2.3,2.3,0,1,0,.75-3.2A2.26,2.26,0,0,0,531.58,69.31Z" transform="translate(226.19 60.44)"/><path class="cls-3" d="M559.63,34.18a2.24,2.24,0,0,0,1.09-1.54,2.43,2.43,0,0,0-.34-1.65,2.24,2.24,0,0,0-3.17-.82,2.22,2.22,0,0,0-1.09,1.54,2.43,2.43,0,0,0,.34,1.65A2.24,2.24,0,0,0,559.63,34.18Z" transform="translate(226.19 60.44)"/><path class="cls-3" d="M562.75,21a1.64,1.64,0,0,0,.22,1.09,1.53,1.53,0,0,0,1.41.76c-.29-.94-.61-1.89-1-2.86A1.48,1.48,0,0,0,562.75,21Z" transform="translate(226.19 60.44)"/><path class="cls-3" d="M565.09,22.6a1.56,1.56,0,0,0-1.48-2.74c.34.84.7,1.82,1.06,2.91A1.54,1.54,0,0,0,565.09,22.6Z" transform="translate(226.19 60.44)"/><path class="cls-3" d="M581.9,23.22a1.56,1.56,0,0,0,1.62,2.67,1.44,1.44,0,0,0,.25-.18V23.44A1.51,1.51,0,0,0,581.9,23.22Z" transform="translate(226.19 60.44)"/><path class="cls-3" d="M574.9,42.5a1.6,1.6,0,0,0-2,1.2,1.62,1.62,0,0,0,.22,1.09,1.51,1.51,0,0,0,2.12.55,1.53,1.53,0,0,0,.51-2.14A1.66,1.66,0,0,0,574.9,42.5Z" transform="translate(226.19 60.44)"/><path class="cls-3" d="M581.89,60.18a1.51,1.51,0,0,0-.51,2.13,1.64,1.64,0,0,0,.86.7,1.48,1.48,0,0,0,1.26-.16,1.35,1.35,0,0,0,.27-.2V60.41A1.5,1.5,0,0,0,581.89,60.18Z" transform="translate(226.19 60.44)"/><path class="cls-3" d="M569.57,97.24a1.57,1.57,0,1,0,2.34,1.63,1.64,1.64,0,0,0-.22-1.09A1.52,1.52,0,0,0,569.57,97.24Z" transform="translate(226.19 60.44)"/><path class="cls-3" d="M541.62,97.59l.21-.12a1.51,1.51,0,0,0,.72-1,1.56,1.56,0,0,0-.22-1.09,1.5,1.5,0,0,0-2.12-.54l-.21.12a1.51,1.51,0,0,0-.72,1,1.62,1.62,0,0,0,.22,1.09A1.51,1.51,0,0,0,541.62,97.59Z" transform="translate(226.19 60.44)"/><path class="cls-3" d="M528.9,128.65a1.51,1.51,0,0,0,.72-1,1.62,1.62,0,0,0-.22-1.09,1.55,1.55,0,0,0-2.85.5,1.63,1.63,0,0,0,.22,1.09A1.53,1.53,0,0,0,528.9,128.65Z" transform="translate(226.19 60.44)"/><path class="cls-3" d="M549.23,133.06a1.52,1.52,0,0,0-.73,1,1.62,1.62,0,0,0,.22,1.09,1.54,1.54,0,0,0,2.85-.5,1.62,1.62,0,0,0-.22-1.09A1.51,1.51,0,0,0,549.23,133.06Z" transform="translate(226.19 60.44)"/><path class="cls-3" d="M515.48,126.26a1.51,1.51,0,0,0,.72-1,1.56,1.56,0,0,0-.22-1.09,1.51,1.51,0,0,0-2.12-.54,1.47,1.47,0,0,0-.72,1,1.57,1.57,0,0,0,.22,1.09A1.52,1.52,0,0,0,515.48,126.26Z" transform="translate(226.19 60.44)"/><path class="cls-3" d="M484,142.8a1.49,1.49,0,0,0,1.26-.16,1.51,1.51,0,0,0,.72-1,1.56,1.56,0,0,0-.22-1.09,1.53,1.53,0,1,0-2.62,1.59A1.59,1.59,0,0,0,484,142.8Z" transform="translate(226.19 60.44)"/><path class="cls-3" d="M489.45,116.8a1.51,1.51,0,0,0,.5-2.13,1.64,1.64,0,0,0-.86-.7,1.59,1.59,0,0,0-2,1.2,1.58,1.58,0,0,0,2.34,1.63Z" transform="translate(226.19 60.44)"/><path class="cls-3" d="M466.65,123.12a1.51,1.51,0,0,0,.72-1,1.62,1.62,0,0,0-.22-1.09,1.52,1.52,0,0,0-2.12-.54,1.48,1.48,0,0,0-.72,1,1.58,1.58,0,0,0,2.34,1.63Z" transform="translate(226.19 60.44)"/><path class="cls-3" d="M467.6,94.23a1.46,1.46,0,0,0,1.25-.15,1.49,1.49,0,0,0,.73-1,1.64,1.64,0,0,0-.22-1.09,1.54,1.54,0,1,0-2.63,1.6A1.56,1.56,0,0,0,467.6,94.23Z" transform="translate(226.19 60.44)"/><path class="cls-3" d="M449.47,87.41a1.47,1.47,0,0,0-.93.86,1.57,1.57,0,0,0,0,1.11,1.54,1.54,0,0,0,2.89.12,1.63,1.63,0,0,0,0-1.11A1.52,1.52,0,0,0,449.47,87.41Z" transform="translate(226.19 60.44)"/><path class="cls-3" d="M480.89,61.25a1.54,1.54,0,0,0-1.76,2.3,1.54,1.54,0,1,0,2.62-1.6A1.64,1.64,0,0,0,480.89,61.25Z" transform="translate(226.19 60.44)"/><path class="cls-3" d="M462.86,51.41a1.62,1.62,0,0,0-.22-1.09,1.55,1.55,0,0,0-2.85.5,1.63,1.63,0,0,0,.22,1.09,1.53,1.53,0,0,0,2.13.54A1.51,1.51,0,0,0,462.86,51.41Z" transform="translate(226.19 60.44)"/><path class="cls-3" d="M449.72,42.56a1.51,1.51,0,0,0,.72-1,1.56,1.56,0,0,0-.22-1.09,1.54,1.54,0,0,0-2.84.5A1.57,1.57,0,0,0,447.6,42,1.52,1.52,0,0,0,449.72,42.56Z" transform="translate(226.19 60.44)"/><path class="cls-3" d="M489.38,34.14a1.51,1.51,0,0,0,.72-1,1.63,1.63,0,0,0-.22-1.09,1.55,1.55,0,0,0-2.85.5,1.62,1.62,0,0,0,.22,1.09A1.52,1.52,0,0,0,489.38,34.14Z" transform="translate(226.19 60.44)"/><path class="cls-3" d="M516.25,8.82a1.53,1.53,0,0,0,.51-2.14,1.66,1.66,0,0,0-.87-.7,1.6,1.6,0,0,0-2,1.2,1.66,1.66,0,0,0,.22,1.1A1.52,1.52,0,0,0,516.25,8.82Z" transform="translate(226.19 60.44)"/><path class="cls-3" d="M515.88,33.17a1.5,1.5,0,0,0,.72-1.05,1.53,1.53,0,0,0-.22-1.09,1.54,1.54,0,0,0-2.84.51,1.64,1.64,0,0,0,.22,1.09A1.52,1.52,0,0,0,515.88,33.17Z" transform="translate(226.19 60.44)"/><path class="cls-3" d="M536.86,51.3a1.5,1.5,0,0,0,.72-1,1.57,1.57,0,0,0-.22-1.09,1.53,1.53,0,1,0-.5,2.14Z" transform="translate(226.19 60.44)"/><path class="cls-3" d="M541.55,73.61a1.62,1.62,0,0,0,.22,1.09,1.51,1.51,0,0,0,2.12.55,1.53,1.53,0,0,0,.51-2.14,1.66,1.66,0,0,0-.87-.7A1.6,1.6,0,0,0,541.55,73.61Z" transform="translate(226.19 60.44)"/><path class="cls-3" d="M504.15,96.77a1.52,1.52,0,0,0,.73-1,1.62,1.62,0,0,0-.22-1.09,1.54,1.54,0,0,0-2.85.5,1.63,1.63,0,0,0,.22,1.09A1.52,1.52,0,0,0,504.15,96.77Z" transform="translate(226.19 60.44)"/><path class="cls-3" d="M483.54,76.62a1.47,1.47,0,0,0-.72,1,1.63,1.63,0,0,0,.22,1.09,1.55,1.55,0,0,0,2.85-.5,1.62,1.62,0,0,0-.22-1.09A1.51,1.51,0,0,0,483.54,76.62Z" transform="translate(226.19 60.44)"/><path class="cls-3" d="M503.83,58.5a1.62,1.62,0,0,0,.22,1.09,1.51,1.51,0,0,0,2.13.54,1.47,1.47,0,0,0,.72-1,1.63,1.63,0,0,0-.22-1.09,1.55,1.55,0,0,0-2.85.5Z" transform="translate(226.19 60.44)"/><path class="cls-3" d="M553.05,45.45a1.64,1.64,0,0,0,.22,1.09,1.55,1.55,0,0,0,2.85-.51,1.64,1.64,0,0,0-.22-1.09,1.53,1.53,0,0,0-2.13-.54A1.5,1.5,0,0,0,553.05,45.45Z" transform="translate(226.19 60.44)"/><path class="cls-3" d="M520.38,114.57a1.51,1.51,0,0,0,.72-1,1.57,1.57,0,0,0-.22-1.09,1.53,1.53,0,1,0-2.62,1.59,1.56,1.56,0,0,0,.59.58h1.44Z" transform="translate(226.19 60.44)"/><path class="cls-3" d="M532,43.44a1.56,1.56,0,0,0-.22-1.09,1.53,1.53,0,1,0-2.62,1.59,1.64,1.64,0,0,0,.86.7,1.49,1.49,0,0,0,1.26-.16A1.51,1.51,0,0,0,532,43.44Z" transform="translate(226.19 60.44)"/><path class="cls-3" d="M530,12a1.52,1.52,0,0,0,2.12.54,1.48,1.48,0,0,0,.72-1,1.56,1.56,0,0,0-.21-1.09A1.54,1.54,0,1,0,530,12Z" transform="translate(226.19 60.44)"/><path class="cls-3" d="M542.35-3.29a1.51,1.51,0,0,0,.5-2.13A1.5,1.5,0,0,0,540.73-6a1.47,1.47,0,0,0-.72,1,1.52,1.52,0,0,0,.22,1.09A1.52,1.52,0,0,0,542.35-3.29Z" transform="translate(226.19 60.44)"/><path class="cls-3" d="M583.44,17a1.55,1.55,0,0,0,.33.39V15A1.5,1.5,0,0,0,583.44,17Z" transform="translate(226.19 60.44)"/><path class="cls-3" d="M541.73,141.68a1.5,1.5,0,0,0-.72,1,1.64,1.64,0,0,0,.22,1.09,1.55,1.55,0,0,0,2.85-.5,1.66,1.66,0,0,0-.22-1.1A1.53,1.53,0,0,0,541.73,141.68Z" transform="translate(226.19 60.44)"/><path class="cls-3" d="M580.72,122.77a1.54,1.54,0,0,0-2.85.5,1.63,1.63,0,0,0,.22,1.09,1.54,1.54,0,1,0,2.63-1.59Z" transform="translate(226.19 60.44)"/><path class="cls-3" d="M543.17,79.6a1.51,1.51,0,0,0-.72,1,1.62,1.62,0,0,0,.22,1.09,1.51,1.51,0,0,0,2.12.54,1.46,1.46,0,0,0,.72-1,1.57,1.57,0,0,0-.21-1.09A1.53,1.53,0,0,0,543.17,79.6Z" transform="translate(226.19 60.44)"/><path class="cls-3" d="M541.13,53.88a1.56,1.56,0,1,0,2.34,1.63,1.57,1.57,0,0,0-.22-1.09A1.52,1.52,0,0,0,541.13,53.88Z" transform="translate(226.19 60.44)"/><path class="cls-3" d="M515.09,24.22a1.52,1.52,0,0,0,.54-2.13l-.12-.2a1.56,1.56,0,0,0-2.68,1.61l.13.21A1.51,1.51,0,0,0,515.09,24.22Z" transform="translate(226.19 60.44)"/><path class="cls-3" d="M494.89,24.16a1.51,1.51,0,0,0-.72,1,1.62,1.62,0,0,0,.22,1.09,1.54,1.54,0,0,0,2.85-.5A1.64,1.64,0,0,0,497,24.7,1.53,1.53,0,0,0,494.89,24.16Z" transform="translate(226.19 60.44)"/><path class="cls-3" d="M509.44,4.88a1.53,1.53,0,0,0-2.13-.54,1.51,1.51,0,0,0-.72,1,1.62,1.62,0,0,0,.22,1.09,1.54,1.54,0,0,0,2.85-.5A1.63,1.63,0,0,0,509.44,4.88Z" transform="translate(226.19 60.44)"/><path class="cls-3" d="M459.17,59.9a1.49,1.49,0,0,0-.73,1,1.62,1.62,0,0,0,.22,1.09,1.51,1.51,0,0,0,2.12.54,1.49,1.49,0,0,0,.73-1,1.62,1.62,0,0,0-.22-1.09A1.52,1.52,0,0,0,459.17,59.9Z" transform="translate(226.19 60.44)"/><path class="cls-3" d="M470.23,64.53a1.48,1.48,0,0,0,.73-1,1.63,1.63,0,0,0-.22-1.09,1.52,1.52,0,0,0-2.12-.54,1.49,1.49,0,0,0-.73,1,1.62,1.62,0,0,0,.22,1.09A1.5,1.5,0,0,0,470.23,64.53Z" transform="translate(226.19 60.44)"/><path class="cls-3" d="M563.61,19.86A38.24,38.24,0,0,0,562,16.19c.54,1.29,1,2.54,1.46,3.77l.05,0Z" transform="translate(226.19 60.44)"/><path class="cls-3" d="M487.06,57.22c.21.29.42.55.62.82a5,5,0,0,1,.47.33C487.59,57.81,487.2,57.38,487.06,57.22Z" transform="translate(226.19 60.44)"/><path class="cls-3" d="M583.77,151.38C576.16,141,571.63,134,570.82,132.52c-4-7.33-1.05-12.94,12.95-23.79v-3.55c-2,1.28-3.94,2.41-5.82,3.46C572,112,566.19,121.8,566.19,121.8c-3.54-38.12,2.41-44.73,17.58-54V64.41c-2.65,1.13-5.25,2.18-7.7,3.45-.62-3.54-1-12.37,7.7-22.65V41.84a43.23,43.23,0,0,0-9.42,15.22c0,.33.08.67.1,1l0,1-.74-.13a37.38,37.38,0,0,0-1.65,11.36A23.11,23.11,0,0,0,567.25,75c-11.15,14.69-6.4,42.57-6.4,42.57s-18.55-19.08-1.34-46.64A54.14,54.14,0,0,0,567,51.8c0-.14,0-.27,0-.41l0-.88.28,0a59.34,59.34,0,0,0-2.51-27.76,1.35,1.35,0,0,1-.29.05c6.13,20.1-.78,34-8.22,47.61A26.26,26.26,0,0,1,550,61.14a36.71,36.71,0,0,1-2-14.47c.12-4.94,1-10,.25-14.9l0-.15-.63.33-.27-.92a9.34,9.34,0,0,1-.21-3.17,11.37,11.37,0,0,0-2.75-3.92A11.77,11.77,0,0,1,547,30.36a31.45,31.45,0,0,1-.08,7.06c-.71,7.73-.9,15.23,1.51,22.71a34.29,34.29,0,0,0,5,9.83c.1.13,1.13,1.27,1.91,2.13-1.12,2-2.24,4.06-3.31,6.11a31.18,31.18,0,0,0-3.26,10c-6-2.18-11-7.11-15.42-11.5-9.15-9.09-19.12-21.49-15.47-35.3,1.43-5.37,3.09-10.91,3.41-16.51.3-4.95-.44-10.09-3-14.36,2.26,4.17,2.56,9.16,1.93,13.85s-2.11,9.21-3.28,13.81a43.2,43.2,0,0,0-1.48,10.52c-9.54-4.67-16.43-18.61-17-19.87,4.57,13.57,17.19,22.75,17.19,22.75.08.72.18,1.42.32,2.14a40.39,40.39,0,0,0,7,15.29,5.31,5.31,0,0,1,2.5,1.78l.54.68-.74.46,0,0h0c.72.89,1.46,1.75,2.22,2.59,10.94,12,17.89,16.08,21,17.45a43.07,43.07,0,0,0,5.79,22.21,88.92,88.92,0,0,0-14.9-12.9c-9.78-6.51-18.27-11.66-26.81-17.42-.09-.08-10.48-10.86-11.52-13.8-1.56-4.44-1.51-12.82-8-21.22S471.6,34,471.6,34s13.78,7.73,18.89,14.1c4.44,5.54,6.35,10.05,6.45,15.77-2.92-.36-6.14-3-8.1-4.85a4.78,4.78,0,0,1,.73,1.16,18.58,18.58,0,0,0,7.36,4.9c0,.49,0,1-.08,1.51a12.17,12.17,0,0,0,1.83,7.29,29.67,29.67,0,0,0-10-5c-8.06-1.94-15.87-.64-23.51,1.56h0l-.37.57c5.9-1.31,13.6-2.45,19.5-1.3s11.47,5.58,18.23,11l.74-.07,1,0-.15.94s0,.14-.08.35a135.44,135.44,0,0,0,20.55,14.26c18.72,10.12,31.19,31.1,31.19,31.1-20.21-23.2-47.7-28.68-66.27-23.87-14.85,3.86-40.65,8.64-41.45,8.8a27.72,27.72,0,0,0,5.66.33q.44-.19.93-.36l.91-.31.07.55c8.45-.71,18.52-4.08,32.32-6.32a5.93,5.93,0,0,1,2.32-.78l.95-.13,0,.42c2.48-.35,5.06-.66,7.78-.91,12.08-1.12,25.63,5.09,35.89,11.33a85.64,85.64,0,0,0-14.56-1.39,1.5,1.5,0,0,1-1.17.11,1.11,1.11,0,0,1-.27-.12,107.58,107.58,0,0,0-25.39,3.06c15-3.29,38.71.23,46.41,1.56a124.47,124.47,0,0,1,11.24,8.44c-7.8-2.33-17.53,2.07-27.28,7.16a83.11,83.11,0,0,1-18.15-1.35l-.25.52-.77-.58-.17-.14c-2.27-.41-4.72-.9-7.34-1.52a118.86,118.86,0,0,0-17-2.7l0,.14-.47-.19a104.67,104.67,0,0,0-19.59.15c8.65-.59,24.45,1.79,34.95,4a6.94,6.94,0,0,1,1.46-.51l.94-.2v1a2.53,2.53,0,0,1,0,.27c1.24.28,2.37.55,3.37.81a111.79,111.79,0,0,0,18.28,2.89c-2.19,1.17-4.36,2.31-6.49,3.36-12.27,6.12-38.86,13.56-42.27,14.51,1.7-.41,9-2.23,17.1-4.39a5.85,5.85,0,0,1,.9-.67l.75-.46.28.61c8.53-2.3,17.46-4.87,21.21-6.49,8.13-3.52,15.91-6.85,24.09-11.8s18-1.09,24,2.72c1.35.84,6.42,10.66,13.25,25.78h11.87Z" transform="translate(226.19 60.44)"/><path class="cls-3" d="M488.29,150.17a5.85,5.85,0,0,0-.9.67l1.93-.52-.28-.61Z" transform="translate(226.19 60.44)"/><path class="cls-3" d="M547.26,31l.27.92.63-.33a15.79,15.79,0,0,0-1.11-3.76A9.34,9.34,0,0,0,547.26,31Z" transform="translate(226.19 60.44)"/><path class="cls-3" d="M505.43,134l.25-.52-1.19-.2.17.14Z" transform="translate(226.19 60.44)"/><path class="cls-3" d="M504.26,80.61l-1,0-.74.07L504,81.9c.05-.21.07-.34.08-.35Z" transform="translate(226.19 60.44)"/><path class="cls-3" d="M454.64,112.16q-.5.16-.93.36c.63,0,1.26-.06,1.91-.12l-.07-.55Z" transform="translate(226.19 60.44)"/><path class="cls-3" d="M465.19,70.42c-3.08.89-6.14,1.92-9.18,3,.85-.27,4.32-1.38,8.82-2.37l.37-.57Z" transform="translate(226.19 60.44)"/><path class="cls-3" d="M566.94,51.39c0,.14,0,.27,0,.41.08-.43.15-.85.21-1.27l-.28,0Z" transform="translate(226.19 60.44)"/><path class="cls-3" d="M574.48,59.06l0-1c0-.37-.05-.71-.1-1-.22.63-.43,1.26-.61,1.87Z" transform="translate(226.19 60.44)"/><path class="cls-3" d="M525.16,71.89l.74-.46-.54-.68a5.31,5.31,0,0,0-2.5-1.78c.72,1,1.47,2,2.25,3h0Z" transform="translate(226.19 60.44)"/><path class="cls-3" d="M480.15,129.06l-.51-.05.47.19Z" transform="translate(226.19 60.44)"/><path class="cls-3" d="M497.4,132.43l-.94.2a6.94,6.94,0,0,0-1.46.51l2.4.52a2.53,2.53,0,0,0,0-.27Z" transform="translate(226.19 60.44)"/><path class="cls-3" d="M488.15,58.37a5,5,0,0,0-.47-.33,28.05,28.05,0,0,0,1.89,2.16,4.78,4.78,0,0,0-.73-1.16Z" transform="translate(226.19 60.44)"/><path class="cls-3" d="M490.26,105.3a5.93,5.93,0,0,0-2.32.78l3.24-.49,0-.42Z" transform="translate(226.19 60.44)"/><path class="cls-3" d="M563.61,19.86l-.13.06-.05,0c.34,1,.66,1.92,1,2.86a1.35,1.35,0,0,0,.29-.05C564.31,21.68,564,20.7,563.61,19.86Z" transform="translate(226.19 60.44)"/><path class="cls-3" d="M520.29,114.62h-1.44a1.11,1.11,0,0,0,.27.12A1.5,1.5,0,0,0,520.29,114.62Z" transform="translate(226.19 60.44)"/><path class="cls-3" d="M460.05,129.17a18.87,18.87,0,0,0-3.3.46S457.92,129.4,460.05,129.17Z" transform="translate(226.19 60.44)"/></svg>