<svg id="Слой_1" data-name="Слой 1" xmlns="http://www.w3.org/2000/svg" viewBox="0 0 238.13 338.68"><defs><style>.cls-1{fill:#22ab22;}</style></defs><title>adress</title><path class="cls-1" d="M540,370.66A119.08,119.08,0,0,0,438.71,552.34l94.51,152.31a9.92,9.92,0,0,0,8.43,4.69h.08a9.94,9.94,0,0,0,8.44-4.83l92.1-153.78A119.09,119.09,0,0,0,540,370.66Zm85.24,169.88L541.5,680.36,455.57,541.88A99.19,99.19,0,0,1,540,390.37c54.71,0,99.29,44.65,99.29,99.36A99.06,99.06,0,0,1,625.24,540.54Z" transform="translate(-420.93 -370.66)"/><path class="cls-1" d="M540,430.19a59.54,59.54,0,1,0,59.53,59.54A59.6,59.6,0,0,0,540,430.19Zm0,99.36a39.82,39.82,0,1,1,39.75-39.82A39.85,39.85,0,0,1,540,529.55Z" transform="translate(-420.93 -370.66)"/></svg>