<svg id="Слой_1" data-name="Слой 1" xmlns="http://www.w3.org/2000/svg" viewBox="0 0 100 100"><defs><style>.cls-1{fill:#fff;}</style></defs><title>Безымянный-1</title><path class="cls-1" d="M40.21,6.49A16.49,16.49,0,0,1,66.52,19.75,16.41,16.41,0,0,1,60,32.91a14,14,0,0,0-2.61,2.6,1.46,1.46,0,0,0,2.32,1.76,11.11,11.11,0,0,1,2.06-2.05A19.41,19.41,0,0,0,38.48,4.15a1.46,1.46,0,0,0,1.73,2.34ZM91.7,66.77H89a9.88,9.88,0,0,0-9.87,10,9.88,9.88,0,0,0-7-2.87H69.43a2.23,2.23,0,0,0-2.23,2.23v2.72a9.87,9.87,0,0,0,9.86,9.87h2v8H51.46V79.92h2a9.88,9.88,0,0,0,9.87-9.86V67.33a2.23,2.23,0,0,0-2.23-2.23H58.41A9.8,9.8,0,0,0,51.46,68V55.19a8.31,8.31,0,0,0,6.47-5.84,4.37,4.37,0,0,0-1.14-8.58H54.37V23.09h3.78a4.88,4.88,0,1,0,0-9.76,6.7,6.7,0,0,0-6.69,6.85H48.55a6.71,6.71,0,0,0-6.7-6.85,4.88,4.88,0,0,0,0,9.76h3.78V40.77h-.57a13.51,13.51,0,0,0-5-7.85A16.46,16.46,0,0,1,36.3,10.57a1.45,1.45,0,1,0-2.41-1.63,19.37,19.37,0,0,0,4.37,26.3,10.63,10.63,0,0,1,3.84,5.67,4.37,4.37,0,0,0,0,8.44,8.3,8.3,0,0,0,6.48,5.84v4.05a9.88,9.88,0,0,0-7-2.87H38.86a2.23,2.23,0,0,0-2.23,2.23v2.72a9.88,9.88,0,0,0,9.87,9.87h2v8.43a9.84,9.84,0,0,0-7-2.88H38.86A2.23,2.23,0,0,0,36.63,79V81.7a9.88,9.88,0,0,0,9.87,9.87h2v5.2H20.89v-8h2.05a9.87,9.87,0,0,0,9.86-9.87V76.15a2.23,2.23,0,0,0-2.23-2.23H27.85a9.88,9.88,0,0,0-7,2.87,9.88,9.88,0,0,0-9.86-10H8.3A2.23,2.23,0,0,0,6.07,69v2.73a9.88,9.88,0,0,0,9.87,9.86h2V96.77H12.71a1.46,1.46,0,0,0,0,2.91H87.29a1.46,1.46,0,0,0,0-2.91H82V81.59h2a9.87,9.87,0,0,0,9.86-9.86V69a2.23,2.23,0,0,0-2.23-2.23ZM76.58,81.24a1.47,1.47,0,0,0-2.06,0,1.45,1.45,0,0,0,0,2.06l2.53,2.53a7,7,0,0,1-6.94-7v-2h2a7,7,0,0,1,7,6.94Zm-18.43-65a2,2,0,0,1,0,3.94H54.37a3.8,3.8,0,0,1,3.78-3.94ZM27.85,76.83h2v2a7,7,0,0,1-6.94,7l2.53-2.53a1.45,1.45,0,0,0,0-2.06,1.47,1.47,0,0,0-2.06,0l-2.53,2.53a7,7,0,0,1,7-6.94ZM18,76.91l-2.57-2.28a1.46,1.46,0,1,0-1.93,2.18l2.11,1.86A7,7,0,0,1,9,71.73v-2h2a7,7,0,0,1,7,7.23Zm30.57,10L46,84.6A1.46,1.46,0,0,0,44,86.78l2.11,1.86a7,7,0,0,1-6.61-6.94v-2h2.05a7,7,0,0,1,7,7.23Zm0-20.38L46,64.22A1.46,1.46,0,0,0,44,66.4l2.11,1.87a7,7,0,0,1-6.61-6.95v-2h2.05a7,7,0,0,1,7,7.22ZM58.41,68h2.05v2A7,7,0,0,1,53.85,77L56,75.13A1.46,1.46,0,1,0,54,73l-2.57,2.28A7,7,0,0,1,58.41,68ZM48.55,23.09h2.91V40.77H48.55Zm-6.7-2.91a2,2,0,1,1,0-3.94,3.79,3.79,0,0,1,3.78,3.94Zm1.36,26.41a1.46,1.46,0,1,1,0-2.91H56.79a1.46,1.46,0,1,1,0,2.91ZM50,52.41h0a5.35,5.35,0,0,1-4.74-2.91h9.5A5.34,5.34,0,0,1,50,52.41ZM91,71.73a7,7,0,0,1-6.61,6.94l2.11-1.86a1.46,1.46,0,1,0-1.93-2.18L82,76.91a7,7,0,0,1,7-7.23h2Zm0,0"/></svg>