<svg id="Слой_1" data-name="Слой 1" xmlns="http://www.w3.org/2000/svg" viewBox="0 0 267.91 267.91"><defs><style>.cls-1{fill:#fff;}</style></defs><title>kompleksrabot</title><path class="cls-1" d="M668.72,615.85A167.16,167.16,0,0,0,551.05,665a5.23,5.23,0,0,0,7.42,7.38,156.67,156.67,0,0,1,110.25-46.1,5.23,5.23,0,1,0,0-10.46Zm0,0" transform="translate(-406.05 -406.05)"/><path class="cls-1" d="M559.61,611a5.24,5.24,0,0,0-7.27-1.4,206.62,206.62,0,0,0-56.17,56.2,5.24,5.24,0,0,0,8.69,5.84,196,196,0,0,1,53.34-53.37,5.25,5.25,0,0,0,1.41-7.27Zm0,0" transform="translate(-406.05 -406.05)"/><path class="cls-1" d="M668.72,573.73A205.83,205.83,0,0,0,599.9,585.6a5.23,5.23,0,1,0,3.49,9.87,195.48,195.48,0,0,1,65.33-11.28,5.23,5.23,0,0,0,0-10.46Zm0,0" transform="translate(-406.05 -406.05)"/><path class="cls-1" d="M481,638.05a238.44,238.44,0,0,1,139.24-87.73h0a233.44,233.44,0,0,1,48.43-5.1,5.23,5.23,0,0,0,0-10.46,246.53,246.53,0,0,0-44.27,4V527.48c18.92-16,29.3-37,29.3-59.33,0-23.1-11.1-44.75-31.25-60.95a5.23,5.23,0,0,0-6.56,0c-20.15,16.2-31.25,37.85-31.25,60.95,0,22.34,10.38,43.32,29.3,59.33v13.43a247.16,247.16,0,0,0-29.34,8.62V518.89a5.18,5.18,0,0,0-1.52-3.68h0l-29.3-29.47a5.24,5.24,0,0,0-3.71-1.54H490.29a5.22,5.22,0,0,0-3.71,1.54l-29.3,29.47h0a5.19,5.19,0,0,0-1.52,3.69v20q-5.47-1-11-1.76V518.46c14.3-12.3,22.15-28.34,22.15-45.44,0-17.86-8.56-34.57-24.11-47.07a5.22,5.22,0,0,0-6.55,0c-15.55,12.5-24.11,29.21-24.11,47.07,0,17.09,7.85,33.14,22.15,45.44v17.45q-11.44-1.06-23-1.08a5.24,5.24,0,0,0,0,10.47,236,236,0,0,1,118.84,32.07,245.58,245.58,0,0,0-24.71,19.2,208.11,208.11,0,0,0-94.13-22.75,5.23,5.23,0,0,0,0,10.46,197.46,197.46,0,0,1,85.9,19.89,246.32,246.32,0,0,0-22.25,24.63,163.6,163.6,0,0,0-63.65-12.86,5.23,5.23,0,1,0,0,10.46,153,153,0,0,1,57.13,11.05Q463,645,458.13,652.93l-8,13.06a5.23,5.23,0,0,0,1.73,7.19,5.17,5.17,0,0,0,2.73.77,5.23,5.23,0,0,0,4.47-2.51l8-13.06a232.53,232.53,0,0,1,13.44-19.66,5.7,5.7,0,0,0,.52-.67Zm114.14-169.9c0-18.6,8.51-36.22,24.06-50,15.55,13.8,24.06,31.42,24.06,50,0,16.38-6.61,32-18.83,44.94V473A5.23,5.23,0,0,0,614,473v40.07c-12.22-12.93-18.83-28.56-18.83-44.94ZM422.62,473c0-13.34,6-26,16.92-36.09C450.48,447,456.45,459.68,456.45,473c0,11-4.08,21.61-11.68,30.64V468.84a5.24,5.24,0,1,0-10.47,0v34.82c-7.6-9-11.68-19.61-11.68-30.64Zm144.22,40.64H521.77l-18.9-19h45.07Zm-76.55-16.82L507,513.66H473.57Zm-24.07,27.29h48.14V557.4q-3.64-1.67-7.33-3.23V536.6a5.24,5.24,0,0,0-5.23-5.24h-23a5.24,5.24,0,0,0-5.23,5.24v6.22q-3.66-1-7.33-1.8ZM496.57,550q-6.22-2.29-12.56-4.25v-4h12.56Zm28.26,12.48V524.13h49.36v29.46A247.26,247.26,0,0,0,548,566.31c-2.72,1.52-5.4,3.11-8.05,4.73q-7.42-4.53-15.1-8.52Zm0,0" transform="translate(-406.05 -406.05)"/><path class="cls-1" d="M619.22,458.37a5.22,5.22,0,1,0-3.7-1.53,5.27,5.27,0,0,0,3.7,1.53Zm0,0" transform="translate(-406.05 -406.05)"/><path class="cls-1" d="M573.8,597.18a5.21,5.21,0,1,0,3.7-1.54,5.27,5.27,0,0,0-3.7,1.54Zm0,0" transform="translate(-406.05 -406.05)"/></svg>