<svg id="Слой_1" data-name="Слой 1" xmlns="http://www.w3.org/2000/svg" viewBox="0 0 216.1 216.1"><defs><style>.cls-1{fill:#22ab22;}</style></defs><title>mail</title><path class="cls-1" d="M527.65,432.64c-48.74,5.44-88.33,44.13-94.74,92.75A108.19,108.19,0,0,0,548.39,647.73c25.1-1.9,48.59-13.12,67-30.29L617,616a4.49,4.49,0,0,0,.22-6.36L611.05,603a4.51,4.51,0,0,0-6.37-.22l-3.29,3.07a90,90,0,0,1-76.94,22.85c-40.19-6.84-71.08-41-74.22-81.61A90.13,90.13,0,0,1,542.67,450c49.08,1.42,87.37,43.31,87.37,92.41V549a18,18,0,0,1-19.8,17.93C600.88,566,594,557.61,594,548.21V508.49a4.51,4.51,0,0,0-4.51-4.51h-9a4.48,4.48,0,0,0-4.06,2.62,49.48,49.48,0,1,0,4.79,60.75,35.87,35.87,0,0,0,33.25,17.59c19.12-1.28,33.55-18,33.55-37.21V540A108.17,108.17,0,0,0,527.65,432.64ZM540,571.51A31.51,31.51,0,1,1,571.51,540,31.54,31.54,0,0,1,540,571.51Z" transform="translate(-431.95 -431.95)"/></svg>