<?xml version="1.0" encoding="utf-8"?>
<!-- Generator: Adobe Illustrator 23.0.1, SVG Export Plug-In . SVG Version: 6.00 Build 0)  -->
<svg version="1.1" id="Capa_1" xmlns="http://www.w3.org/2000/svg" xmlns:xlink="http://www.w3.org/1999/xlink" x="0px" y="0px"
	 viewBox="0 0 512 512" style="enable-background:new 0 0 512 512;" xml:space="preserve">
<style type="text/css">
	.st0{fill:#FFFFFF;}
</style>
<g>
	<g>
		<path class="st0" d="M498.5,381c-12.2-14-68.5-70.4-74.8-76.7c-4-4.5-19.2-19.5-40.6-19.5c-10.2,0-20.1,3.4-28.9,10
			c-10.9,8.1-26.8,22.3-38.4,32.8c-15-8.6-38.5-22.8-54.4-35.9c-27.4-22.6-52-52-75.2-90l-2.4-4.6c11.7-12.8,25.9-28.9,34-39.7
			c20.4-27.3,5.7-56.2-9.6-69.6c-6.9-6.9-62.7-62.6-76.6-74.7C121.7,4.5,109.7,0,96.8,0C86.6,0,79,2.8,77,3.7l-6.9,4
			C40,27,2.6,51.1,0.5,141c-0.1,88,67.8,172.8,125,228.5C185,434.7,275.6,512,370.3,512l0.7,0c89.5-2,113.5-39.5,132.8-69.6l2.1-3.3
			l1.9-3.6C512.4,424.6,515.7,400.7,498.5,381z M465.2,416.7l-0.4,0.7c-16.8,26.1-30,46.8-94.3,48.2l-0.1,23.2v-23.2
			c-82.2,0-167.5-80.1-211-127.9l-1-1c-71.9-70-111.5-139.5-111.5-195.2C48.3,76.8,69,63.5,95.1,46.7l0.5-0.3
			c1.7-0.2,3.8,0.1,5.5,1.6c11.1,9.6,57.8,56.1,74.9,73.1l1.3,1.2c1.9,1.7,4,4.9,4.1,6c0,0-0.1,0.4-0.8,1.3c-7,9.4-22.2,26.8-42,48
			l-11.2,12.1l18.2,34.3l0.7,1.2c26,42.8,54,76.2,85.7,102.3c28.4,23.3,74.4,47.9,76.3,49l14.6,7.8l12.1-11.3
			c14.7-13.7,35.8-32.7,47-41c0.7-0.5,1.1-0.7,1.1-0.7c1.3,0.1,4.4,2.2,5.9,3.8l1.4,1.5c17.1,17.1,63.5,63.8,73.2,74.9
			C465.2,413.4,465.4,415.5,465.2,416.7z"/>
	</g>
</g>
</svg>
