<svg id="Слой_1" data-name="Слой 1" xmlns="http://www.w3.org/2000/svg" viewBox="0 0 229.44 229.78"><defs><style>.cls-1{fill:#22ab22;}</style></defs><title>phone</title><path class="cls-1" d="M606.71,567.45c-4.71-4.9-10.38-7.51-16.39-7.51s-11.69,2.56-16.59,7.46l-15.32,15.28c-1.27-.68-2.53-1.31-3.74-1.94-1.74-.87-3.39-1.7-4.8-2.57-14.35-9.12-27.4-21-39.91-36.37-6.06-7.67-10.14-14.12-13.1-20.66,4-3.64,7.67-7.42,11.25-11.06,1.36-1.36,2.72-2.76,4.08-4.12,10.18-10.19,10.18-23.38,0-33.56L499,459.16c-1.5-1.5-3.06-3.06-4.51-4.61-2.91-3-6-6.11-9.12-9-4.7-4.65-10.33-7.13-16.24-7.13s-11.64,2.48-16.49,7.13l-.1.1L436,462.26a35.46,35.46,0,0,0-10.52,22.55c-1.17,14.16,3,27.36,6.21,36,7.85,21.19,19.59,40.83,37.1,61.88a228.14,228.14,0,0,0,76,59.5c11.15,5.29,26,11.55,42.67,12.61,1,.05,2.09.1,3.06.1,11.2,0,20.61-4,28-12,0-.1.15-.14.2-.24a112,112,0,0,1,8.48-8.78c2.09-2,4.22-4.07,6.31-6.25,4.8-5,7.32-10.82,7.32-16.78s-2.57-11.79-7.47-16.64Zm17.36,51.07c-.05,0-.05.05,0,0-1.89,2-3.83,3.88-5.92,5.91a129.26,129.26,0,0,0-9.36,9.7c-4.9,5.24-10.67,7.71-18.23,7.71-.73,0-1.51,0-2.23,0-14.4-.93-27.79-6.55-37.83-11.35a215.55,215.55,0,0,1-71.58-56.06C462.38,554.45,451.33,536,444,516.24c-4.51-12.08-6.16-21.49-5.43-30.36a22.3,22.3,0,0,1,6.69-14.4l16.54-16.54c2.38-2.23,4.9-3.44,7.37-3.44,3.06,0,5.53,1.84,7.08,3.39l.15.15c3,2.76,5.77,5.62,8.73,8.68,1.5,1.55,3.05,3.1,4.6,4.7L503,481.66c5.14,5.14,5.14,9.9,0,15-1.4,1.4-2.76,2.81-4.17,4.17-4.07,4.17-7.95,8.05-12.17,11.83-.09.1-.19.15-.24.24-4.17,4.17-3.39,8.25-2.52,11l.14.44c3.45,8.34,8.3,16.19,15.67,25.55l.05,0c13.38,16.49,27.49,29.34,43.06,39.19a66.61,66.61,0,0,0,6,3.25c1.75.87,3.4,1.69,4.81,2.57.19.1.38.24.58.34a10.57,10.57,0,0,0,4.8,1.21,10.34,10.34,0,0,0,7.37-3.35l16.59-16.58c1.65-1.65,4.27-3.64,7.32-3.64s5.48,1.89,7,3.54L624,603.34c5,4.94,5,10,.05,15.18Zm0,0" transform="translate(-425.28 -425.11)"/><path class="cls-1" d="M549.29,479.77a62.41,62.41,0,0,1,50.82,50.82,6.51,6.51,0,0,0,6.45,5.44,8.47,8.47,0,0,0,1.12-.1,6.55,6.55,0,0,0,5.38-7.57,75.48,75.48,0,0,0-61.49-61.49A6.58,6.58,0,0,0,544,472.2a6.48,6.48,0,0,0,5.29,7.57Zm0,0" transform="translate(-425.28 -425.11)"/><path class="cls-1" d="M654.62,526.47A124.28,124.28,0,0,0,553.36,425.21a6.54,6.54,0,1,0-2.13,12.9,111,111,0,0,1,90.49,90.5,6.51,6.51,0,0,0,6.45,5.43,8.47,8.47,0,0,0,1.12-.1,6.42,6.42,0,0,0,5.33-7.47Zm0,0" transform="translate(-425.28 -425.11)"/></svg>