<svg id="Слой_1" data-name="Слой 1" xmlns="http://www.w3.org/2000/svg" viewBox="0 0 275.65 275.65"><defs><style>.cls-1{fill:#fff;}</style></defs><title>podborrasteni</title><path class="cls-1" d="M585.7,528.66a87,87,0,1,0,87,87,87,87,0,0,0-87-87Zm0,164.84a77.84,77.84,0,1,1,77.84-77.84A77.84,77.84,0,0,1,585.7,693.5Zm0,0" transform="translate(-480.05 -510.01)"/><path class="cls-1" d="M748.93,746.51l-51.81-51.8a4.57,4.57,0,0,0-6.47,0l-3.24,3.23L669.2,679.73a105.48,105.48,0,1,0-19.43,19.43L668,717.38l-3.23,3.23a4.57,4.57,0,0,0,0,6.47l51.8,51.81a22.9,22.9,0,1,0,32.38-32.38ZM489.54,615.66a96.16,96.16,0,1,1,96.16,96.16,96.16,96.16,0,0,1-96.16-96.16ZM663.3,686.77l17.64,17.63-6.5,6.5-17.63-17.62q3.39-3.12,6.49-6.51Zm79.15,85.63a14.07,14.07,0,0,1-19.43,0l-48.56-48.55,19.42-19.43L742.45,753a13.72,13.72,0,0,1,0,19.42Zm0,0" transform="translate(-480.05 -510.01)"/><path class="cls-1" d="M617.75,638.55H590.28V629.4h9.15a22.94,22.94,0,0,0,22.9-22.9v-9.16a4.58,4.58,0,0,0-4.58-4.58h-9.16a22.8,22.8,0,0,0-18.31,9.3v-7.4l5.13-5.13a22.92,22.92,0,0,0,0-32.38l-6.48-6.48a4.59,4.59,0,0,0-6.47,0L576,557.15a22.94,22.94,0,0,0,0,32.38l5.14,5.13v7.4a22.82,22.82,0,0,0-18.32-9.3h-9.16a4.58,4.58,0,0,0-4.57,4.58v9.16A22.92,22.92,0,0,0,572,629.4h9.16v9.15H553.64a13.7,13.7,0,0,0-3.71,26.9l2.71,10.85,8.88-2.23-2-8h52.37l-2,8,8.89,2.23,2.71-10.85a13.7,13.7,0,0,0-3.72-26.9Zm-22.89-22.89a13.73,13.73,0,0,1,13.73-13.74h4.58v4.58a13.74,13.74,0,0,1-13.74,13.74h-4.57Zm-18.32,4.58H572a13.74,13.74,0,0,1-13.74-13.74v-4.58h4.58a13.74,13.74,0,0,1,13.74,13.74Zm5.92-56.62,3.24-3.23,3.23,3.23a13.75,13.75,0,0,1,0,19.43l-3.23,3.24-3.24-3.24a13.77,13.77,0,0,1,0-19.43Zm35.29,93.25H553.64a4.58,4.58,0,0,1,0-9.16h64.11a4.58,4.58,0,1,1,0,9.16Zm0,0" transform="translate(-480.05 -510.01)"/></svg>