<svg id="Слой_1" data-name="Слой 1" xmlns="http://www.w3.org/2000/svg" viewBox="0 0 507.04 467.42"><defs><style>.cls-1{fill:#3da52b;}</style></defs><title>professionalworker</title><path class="cls-1" d="M790.62,756.81,727,693.22a50.72,50.72,0,0,0-26.35-14V550.92c2.08.18,4.14.26,6.21.26a74.93,74.93,0,0,0,72.92-91.49,9.91,9.91,0,0,0-7.48-7.48,74.61,74.61,0,0,0-69.53,20.09c-.73.73-1.43,1.47-2.12,2.22V422.69a61.6,61.6,0,0,0-4.61-101,9.89,9.89,0,0,0-10.59,0,61.6,61.6,0,0,0-4.61,101v13A66.5,66.5,0,0,0,619.1,418a9.92,9.92,0,0,0-7.49,7.48,66.84,66.84,0,0,0,65,81.59c1.4,0,2.8-.06,4.21-.15v39.78c-1.29-1.49-2.63-3-4-4.35a81.11,81.11,0,0,0-74.76-22,31.76,31.76,0,0,0-31.39-27.2H507l-29.65-40.76A56.23,56.23,0,0,0,462.08,438a47.91,47.91,0,0,0,29.46-44.15V370.21h15.27a9.9,9.9,0,1,0,0-19.8H494.26V334.54A28.28,28.28,0,0,0,466,306.29H419.19a28.28,28.28,0,0,0-28.25,28.25v15.87H378.4a9.9,9.9,0,1,0,0,19.8h17.48v23.68a47.76,47.76,0,0,0,18.71,37.9,56.57,56.57,0,0,0-39.36,53.82V593.43a62.64,62.64,0,0,0,31.43,54.27v63.62h-89a31.2,31.2,0,1,0,0,62.39h106a53.65,53.65,0,0,0,53.59-53.6V656.06H513.5v86.46a31.2,31.2,0,0,0,62.39,0V635.07a53.65,53.65,0,0,0-53.59-53.6H474.6V556.1a9.84,9.84,0,0,0,3,.48h93a31.59,31.59,0,0,0,21.08-8A81.5,81.5,0,0,0,673,627.47c2.61,0,5.23-.13,7.84-.39v52.15a50.82,50.82,0,0,0-26.2,14l-63.29,63.29a9.9,9.9,0,0,0,14,14l63.3-63.3a31.39,31.39,0,0,1,44.35,0l63.59,63.59a9.9,9.9,0,1,0,14-14ZM471.73,393.89a28,28,0,0,1-56,0V370.21h56Zm-61-43.48V334.54a8.45,8.45,0,0,1,8.44-8.44H466a8.45,8.45,0,0,1,8.45,8.44v15.87Zm46.73,369.7a33.82,33.82,0,0,1-33.79,33.79h-106a11.39,11.39,0,1,1,0-22.77h98.88a9.9,9.9,0,0,0,9.9-9.9V655a62.14,62.14,0,0,0,11.4,1.06h19.62ZM522.3,601.28a33.82,33.82,0,0,1,33.78,33.79V742.52a11.39,11.39,0,0,1-22.77,0V646.16a9.91,9.91,0,0,0-9.9-9.91H437.86a42.88,42.88,0,0,1-42.09-35Zm48.37-64.5H482.06l-19.24-21.63A9.9,9.9,0,1,0,448,528.31l6.77,7.6v45.56H395V485.61A36.67,36.67,0,0,1,461.36,464L494,508.86a9.89,9.89,0,0,0,8,4.08h68.68a11.92,11.92,0,1,1,0,23.84Zm110.19,64a63.84,63.84,0,0,1-.41,6.46A61.66,61.66,0,0,1,612,538.74a61.62,61.62,0,0,1,68.9,60.62Zm35.93-114.45a54.83,54.83,0,0,1,44.76-15.84A55.12,55.12,0,0,1,701,531.06c-.17-1.68-.26-3.36-.28-5V524.1A54.78,54.78,0,0,1,716.79,486.31Zm-36.08.78a47,47,0,0,1-50.77-50.77,47,47,0,0,1,50.77,50.77Zm10-81.88a41.82,41.82,0,0,1,0-62.84,41.78,41.78,0,0,1,0,62.84Z" transform="translate(-286.48 -306.29)"/></svg>