<svg id="Слой_1" data-name="Слой 1" xmlns="http://www.w3.org/2000/svg" viewBox="0 0 466.24 444.9"><defs><style>.cls-1{fill:#3da52b;}</style></defs><title>tenyears</title><path class="cls-1" d="M771.88,537.92a7.57,7.57,0,0,0-6.36-3.44H760.9a65.68,65.68,0,0,0-52.2,25.84l-61.91,71.33a34.51,34.51,0,0,0-29.37-16.39H557.49c.49-4.56,1.15-11.53,1.68-20.3,3.83-28.22,11.22-50.49,19.6-67.8q14.73,5.6,27.34,5.6a47,47,0,0,0,26.26-7.57c36.31-23.71,33.18-94.93,33-97.94a7.58,7.58,0,0,0-7.16-7.21c-42.52-2.37-72,7.09-87.68,28.08-21.57,28.88-8,67.93-7.41,69.58a7.49,7.49,0,0,0,1.74,2.75c-2,4.18-4,8.6-5.83,13.3-.44-6.52-1-13.2-1.83-20-4.41-37.65-13.88-69.14-28-93.8,12.34-27.19,12.73-49.8,1.1-67.25-26.18-39.29-104-35.14-107.26-34.95A7.6,7.6,0,0,0,415.9,325c-2.15,46.44,8.43,78.54,31.43,95.4,13.57,9.93,29.11,12.82,42.58,12.82a107.37,107.37,0,0,0,27.31-3.68C546,481.76,546.15,556.11,543.9,594.35q-1.27,9.95-2,20.82a84.26,84.26,0,0,1-41.07-12.4,274.34,274.34,0,0,0-83.76-34.46c-64.62-14.37-106.94,40.89-108.7,43.26a7.55,7.55,0,0,0-1.52,4.55v74a7.59,7.59,0,0,0,6.84,7.56l23.61,2.36a272.25,272.25,0,0,1,81.72,21.3l71.89,31.25A119.89,119.89,0,0,0,582.65,754L640,731.08l9.85-2.46a99.79,99.79,0,0,0,66.68-56.23l56-127.26A7.59,7.59,0,0,0,771.88,537.92ZM582.72,457.21c11.65-15.59,34.33-23.09,67.64-22.28-.11,21.73-4.77,63.47-26.3,77.54-9.67,6.31-22.42,6.68-38,1.17,16.82-28.05,34.62-38.74,35.11-39a7.59,7.59,0,0,0-7.47-13.22c-1.46.81-20.57,12-38.8,40.9C572.83,490.78,571.8,471.84,582.72,457.21ZM456.31,408.13c-17.56-12.87-26.11-38.22-25.46-75.42,23.89-.28,70.81,4.41,86.81,28.43,7.31,11,7.75,25.54,1.4,43.4-12.78-17-28.4-29.73-46.7-37.73a7.6,7.6,0,1,0-6.09,13.92c17.78,7.78,31.64,20.13,42.42,35.22C496.26,418.6,473.67,420.85,456.31,408.13ZM702.58,666.26a84.45,84.45,0,0,1-56.45,47.61l-10.36,2.59a8.62,8.62,0,0,0-1,.32L577,739.89a104.59,104.59,0,0,1-80-1.18l-71.88-31.25A288,288,0,0,0,338.84,685l-16.76-1.68h0V618.81c7.57-9,42.79-46.52,91.73-35.67a259.15,259.15,0,0,1,79.05,32.53,99.75,99.75,0,0,0,52.68,14.78h71.89a19.33,19.33,0,1,1,0,38.66H517.13a135.93,135.93,0,0,0-43.06,7l-.38.13,2.36,7.22,2.79,7.09a120.67,120.67,0,0,1,38.29-6.22h100.3A34.57,34.57,0,0,0,652,649.78c0-.29,0-.59,0-.88l68.58-79a50.76,50.76,0,0,1,33.13-19.65Z" transform="translate(-306.88 -317.55)"/></svg>