<svg id="Слой_1" data-name="Слой 1" xmlns="http://www.w3.org/2000/svg" viewBox="0 0 275.76 275.75"><defs><style>.cls-1{fill:#fff;}</style></defs><title>vystanovlenyusrok</title><path class="cls-1" d="M632.75,774H562.29V725.61a62.2,62.2,0,0,0,11.28,1,62.63,62.63,0,0,0,60.63-78.86,5.38,5.38,0,0,0-3.81-3.81,62.51,62.51,0,0,0-68.1,25.42V645.68a62.67,62.67,0,0,0-2.69-106.89,5.42,5.42,0,0,0-5.4,0,62.67,62.67,0,0,0-2.69,106.89V670a62.07,62.07,0,0,0-8-9.77A62.89,62.89,0,0,0,483,644a5.39,5.39,0,0,0-3.82,3.81,62.72,62.72,0,0,0,72.3,77.76V774h-69a5.39,5.39,0,0,0,0,10.78H632.75a5.39,5.39,0,0,0,0-10.78ZM577.48,667.81a52.09,52.09,0,0,1,47-14.16A51.88,51.88,0,0,1,570,715.75l32.25-32.25a5.39,5.39,0,0,0-7.62-7.62l-32.25,32.25a52.1,52.1,0,0,1,15.06-40.32Zm-43.83-74.74a52.1,52.1,0,0,1,23.25-43.28,51.88,51.88,0,0,1,5.39,82.43V590.59a5.39,5.39,0,0,0-10.78,0v41.63a52.06,52.06,0,0,1-17.86-39.15ZM503.06,700.69a52.09,52.09,0,0,1-14.16-47A51.88,51.88,0,0,1,551,708.13l-33.31-33.31a5.38,5.38,0,0,0-7.61,7.62l33.31,33.31a52.08,52.08,0,0,1-40.32-15.06Zm0,0" transform="translate(-477.09 -509.02)"/><path class="cls-1" d="M746.3,548.52a5.39,5.39,0,0,0-9.75,4.59,58.17,58.17,0,1,1-28.13-28,5.38,5.38,0,1,0,4.53-9.77,68.93,68.93,0,1,0,33.35,33.14Zm0,0" transform="translate(-477.09 -509.02)"/><path class="cls-1" d="M725.16,583.37h3.91a5.39,5.39,0,1,0,0-10.78h-3.91a5.39,5.39,0,0,0,0,10.78Zm0,0" transform="translate(-477.09 -509.02)"/><path class="cls-1" d="M638.77,572.49a5.39,5.39,0,0,0,0,10.78h3.91a5.39,5.39,0,1,0,0-10.78Zm0,0" transform="translate(-477.09 -509.02)"/><path class="cls-1" d="M683.87,613.78a5.39,5.39,0,0,0-5.39,5.39v3.91a5.39,5.39,0,0,0,10.78,0v-3.91a5.39,5.39,0,0,0-5.39-5.39Zm0,0" transform="translate(-477.09 -509.02)"/><path class="cls-1" d="M706.58,555.27a5.37,5.37,0,0,0-7.61,0l-9.64,9.64,0-28a5.39,5.39,0,0,0-5.38-5.4h0a5.38,5.38,0,0,0-5.38,5.38l-.05,41.06a5.41,5.41,0,0,0,3.32,5,5.52,5.52,0,0,0,2.06.41,5.39,5.39,0,0,0,3.81-1.58l18.85-18.85a5.38,5.38,0,0,0,0-7.62Zm0,0" transform="translate(-477.09 -509.02)"/><path class="cls-1" d="M728.87,538.37a5.39,5.39,0,1,0-3.81-1.58,5.38,5.38,0,0,0,3.81,1.58Zm0,0" transform="translate(-477.09 -509.02)"/></svg>